<?xml version="1.0" standalone="no"?>
<!DOCTYPE svg PUBLIC "-//W3C//DTD SVG 20010904//EN"
 "http://www.w3.org/TR/2001/REC-SVG-20010904/DTD/svg10.dtd">
<svg version="1.0" xmlns="http://www.w3.org/2000/svg"
 width="300.000000pt" height="300.000000pt" viewBox="0 0 300.000000 300.000000"
 preserveAspectRatio="xMidYMid meet">
<metadata>
Created by potrace 1.14, written by Peter Selinger 2001-2017
</metadata>
<g transform="translate(0.000000,300.000000) scale(0.100000,-0.100000)"
fill="#000000" stroke="none">
<path d="M1785 2783 c-401 -86 -685 -431 -685 -833 l0 -77 -97 -6 c-129 -9
-196 -27 -321 -88 -204 -101 -359 -290 -424 -516 -18 -64 -22 -103 -22 -213 0
-163 14 -222 85 -368 101 -204 290 -359 516 -424 64 -18 103 -22 213 -22 163
0 222 14 368 85 260 128 430 386 449 682 l6 97 78 0 c298 0 572 158 731 421
133 219 153 491 57 741 -145 376 -564 605 -954 521z m383 -43 c278 -79 494
-295 574 -577 32 -112 32 -314 0 -426 -81 -283 -295 -498 -579 -579 -112 -32
-314 -32 -426 0 -283 81 -498 295 -579 579 -32 112 -32 314 0 426 89 313 339
539 660 597 78 15 268 4 350 -20z"/>
</g>
</svg>
